# xmcd
#
# Track frame offsets: 
#        150
#        25558
#        48788
#        74123
#        99668
#        118931
#        144490
#        165715
#        181428
#        200723
#        214891
#        245146
#
# Disc length: 3473 seconds
#
# Revision: 0
# Processed by: cddbd v1.5.2PL0 Copyright (c) Steve Scherf et al.
# Submitted via: ExactAudioCopy v0.95a5
#
DISCID=ba0d8f0c
DTITLE=Jimmy Johnson - Livin' The Life
DYEAR=2002
DGENRE=Blues
TTITLE0=I Used to Be A Millionaire
TTITLE1=You Don't Have To Go
TTITLE2=Drowning On Dry Land
TTITLE3=Something You Got
TTITLE4=Livin' The Life
TTITLE5=The Sky Is Crying
TTITLE6=Bring It On Home To Me
TTITLE7=Pretty Baby
TTITLE8=Born Under A Bad Sign
TTITLE9=Next Time You See Me
TTITLE10=Quick Sand
TTITLE11=When There's A Will, There's A Way
EXTD=
EXTT0=
EXTT1=
EXTT2=
EXTT3=
EXTT4=
EXTT5=
EXTT6=
EXTT7=
EXTT8=
EXTT9=
EXTT10=
EXTT11=
PLAYORDER=
